<?xml version="1.0" encoding="UTF-8"?>
<!DOCTYPE svg PUBLIC "-//W3C//DTD SVG 1.1//EN" "http://www.w3.org/Graphics/SVG/1.1/DTD/svg11.dtd">
<!-- Creator: CorelDRAW -->
<svg xmlns="http://www.w3.org/2000/svg" xml:space="preserve" width="476.042mm" height="203.2mm" version="1.1" style="shape-rendering:geometricPrecision; text-rendering:geometricPrecision; image-rendering:optimizeQuality; fill-rule:evenodd; clip-rule:evenodd"
viewBox="0 0 54533.84 23277.95"
 xmlns:xlink="http://www.w3.org/1999/xlink"
 xmlns:xodm="http://www.corel.com/coreldraw/odm/2003">
 <defs>
  <style type="text/css">
   <![CDATA[
    .fil1 {fill:#7C3AED;fill-rule:nonzero}
    .fil0 {fill:#7C3AED;fill-rule:nonzero}
   ]]>
  </style>
 </defs>
 <g id="Camada_x0020_1">
  <metadata id="CorelCorpID_0Corel-Layer"/>
  <path class="fil0" d="M14120.72 323.31l3556.36 0 0 22631.34 -3556.36 0 0 -22631.34zm10830.72 22954.64c-1724.3,0 -3028.29,-490.34 -3911.99,-1471.04 -883.7,-980.69 -1325.55,-2387.07 -1325.55,-4219.13l0 -1293.22 3362.37 0 0 1551.87c0,1465.65 614.28,2198.47 1842.84,2198.47 603.5,0 1061.52,-177.82 1374.04,-533.46 312.53,-355.63 468.79,-932.19 468.79,-1729.67 0,-948.37 -215.54,-1783.57 -646.6,-2505.62 -431.08,-722.04 -1228.56,-1589.58 -2392.46,-2602.61 -1465.64,-1293.21 -2489.45,-2462.5 -3071.4,-3507.86 -581.95,-1045.34 -872.92,-2225.42 -872.92,-3540.18 0,-1788.95 452.63,-3173.77 1357.89,-4154.46 905.25,-980.7 2220.02,-1471.05 3944.32,-1471.05 1702.74,0 2990.56,490.35 3863.49,1471.05 872.92,980.69 1309.38,2387.07 1309.38,4219.13l0 937.58 -3362.37 0 0 -1163.9c0,-775.93 -150.87,-1341.71 -452.63,-1697.35 -301.75,-355.63 -743.6,-533.45 -1325.55,-533.45 -1185.46,0 -1778.17,722.04 -1778.17,2166.14 0,819.04 220.92,1584.18 662.77,2295.46 441.86,711.27 1244.73,1573.42 2408.63,2586.44 1487.2,1293.22 2510.99,2467.9 3071.4,3524.02 560.39,1056.13 840.6,2295.47 840.6,3718.01 0,1853.61 -458.02,3276.15 -1374.05,4267.62 -916.03,991.47 -2246.96,1487.2 -3992.81,1487.2zm10184.1 -19721.59l-3718 0 0 -3233.05 10992.36 0 0 3233.05 -3718 0 0 19398.29 -3556.36 0 0 -19398.29zm13999.1 19721.59c-1745.85,0 -3082.16,-495.73 -4008.97,-1487.2 -926.81,-991.47 -1390.22,-2392.45 -1390.22,-4202.97l0 -11897.61c0,-1810.51 463.41,-3211.5 1390.22,-4202.97 926.81,-991.47 2263.13,-1487.21 4008.97,-1487.21 1745.85,0 3082.18,495.74 4008.99,1487.21 926.81,991.47 1390.2,2392.45 1390.2,4202.97l0 11897.61c0,1810.51 -463.39,3211.5 -1390.2,4202.97 -926.81,991.47 -2263.14,1487.2 -4008.99,1487.2zm0 -3233.05c1228.56,0 1842.84,-743.6 1842.84,-2230.8l0 -12350.25c0,-1487.2 -614.28,-2230.8 -1842.84,-2230.8 -1228.55,0 -1842.83,743.6 -1842.83,2230.8l0 12350.25c0,1487.2 614.28,2230.8 1842.83,2230.8z"/>
  <path class="fil1" d="M4675.62 323.31l2842.03 0 0 15667.75 4676.42 0 0 2611.29 -7518.45 0 0 -18279.04zm4732.56 19398.29l2785.89 0 0 3233.05 -2785.89 0 -1812.23 0 -7595.94 0 0 -22631.34 3556.36 0 0 19398.29 4039.58 0 1812.23 0z"/>
 </g>
</svg>
